# xmcd
#
# Track frame offsets: 
#        150
#        19283
#        35164
#        54214
#        72749
#        86319
#        104848
#        122688
#        144548
#        159058
#        178469
#        194095
#
# Disc length: 2824 seconds
#
# Revision: 0
# Processed by: cddbd v1.5.2PL0 Copyright (c) Steve Scherf et al.
# Submitted via: ExactAudioCopy v1.1
#
DISCID=b20b060c
DTITLE=Lords Of Acid - Pretty In Kink
DYEAR=2018
DGENRE=House
TTITLE0=Break Me
TTITLE1=Ma Fille De Joie
TTITLE2=Lords Of Acid Feat. Lisa Cruz Aka Luscious - Sex Cam Girl
TTITLE3=Flow Juice
TTITLE4=Like Pablo Escobar
TTITLE5=Before The Night Is Over
TTITLE6=Androgyny
TTITLE7=Goldfinger
TTITLE8=Lords Of Acid Feat. Rocco Corsari - What The Fuck!
TTITLE9=Lords Of Acid Feat. Matic - So Goddamn Good
TTITLE10=My Demons Are Inside
TTITLE11=Lords Of Acid Feat. Nino Pornero - We Are The Freaks
EXTD=
EXTT0=
EXTT1=
EXTT2=
EXTT3=
EXTT4=
EXTT5=
EXTT6=
EXTT7=
EXTT8=
EXTT9=
EXTT10=
EXTT11=
PLAYORDER=
